<svg xmlns="http://www.w3.org/2000/svg" xmlns:xlink="http://www.w3.org/1999/xlink" aria-hidden="true" focusable="false" width="1em" height="1em" style="-ms-transform: rotate(360deg); -webkit-transform: rotate(360deg); transform: rotate(360deg);" preserveAspectRatio="xMidYMid meet" viewBox="0 0 256 256"><defs><path d="M128 0c70.75 0 128 57.25 128 128s-57.25 128-128 128S0 198.75 0 128S57.25 0 128 0z" id="IconifyId-174f4a7a57b-7aca58-87"/><path d="M128 3c69.09 0 125 55.91 125 125s-55.91 125-125 125S3 197.09 3 128S58.91 3 128 3z" id="IconifyId-174f4a7a57b-7aca58-88"/><filter x="-2.4%" y="-2.4%" width="104.8%" height="104.8%" filterUnits="objectBoundingBox" id="IconifyId-174f4a7a57b-7aca58-89"><feOffset in="SourceAlpha" result="shadowOffsetOuter1"/><feGaussianBlur stdDeviation="2" in="shadowOffsetOuter1" result="shadowBlurOuter1"/><feColorMatrix values="0 0 0 0 0 0 0 0 0 0 0 0 0 0 0 0 0 0 0.3 0" in="shadowBlurOuter1"/></filter></defs><mask id="IconifyId-174f4a7a57b-7aca58-90" fill="#fff"><use xlink:href="#IconifyId-174f4a7a57b-7aca58-87"/></mask><g mask="url(#IconifyId-174f4a7a57b-7aca58-90)"><use filter="url(#IconifyId-174f4a7a57b-7aca58-89)" xlink:href="#IconifyId-174f4a7a57b-7aca58-88"/><use fill="#FFF" fill-rule="evenodd" xlink:href="#IconifyId-174f4a7a57b-7aca58-88"/></g><path d="M128 7.386c66.667 0 120.614 53.947 120.614 120.614S194.667 248.614 128 248.614S7.386 194.667 7.386 128S61.333 7.386 128 7.386z" fill="#5C5C5E" mask="url(#IconifyId-174f4a7a57b-7aca58-90)"/><path d="M192.035 181.07c-4.386 13.597-10.965 23.684-20.175 31.14c-9.21 7.457-21.492 11.404-36.842 12.72l-3.07-20.176c10.087-1.315 17.543-3.508 22.368-7.017c1.754-1.316 5.263-5.263 5.263-5.263L123.175 75.807h30.264l21.052 87.28l22.369-87.28h29.386l-34.21 105.263zM86.333 71.86c7.018 0 13.597.877 18.86 3.07c5.702 2.193 10.965 5.263 16.228 9.649l-12.28 16.667c-3.51-2.632-7.018-4.386-10.088-5.702c-3.07-1.316-7.018-1.755-10.527-1.755c-14.912 0-22.368 11.404-22.368 34.65c0 11.842 1.754 20.175 5.702 25c3.947 5.263 9.21 7.456 16.666 7.456c3.51 0 7.018-.439 10.088-1.755c3.07-1.315 6.579-3.07 10.965-5.701l12.28 17.543c-10.087 8.334-21.49 12.281-34.648 12.281c-10.527 0-19.299-2.193-27.193-6.579c-7.457-4.386-13.597-10.965-17.544-19.298c-3.948-8.333-6.14-17.982-6.14-29.386c0-10.965 2.192-21.053 6.14-29.386c3.947-8.772 10.087-15.35 17.544-20.175c7.456-3.948 16.228-6.58 26.315-6.58z" fill="#FFF" mask="url(#IconifyId-174f4a7a57b-7aca58-90)"/></svg>
